<svg preserveAspectRatio="none" width="100%" height="100%" overflow="visible" style="display: block;" viewBox="0 0 18.8083 18.8083" fill="none" xmlns="http://www.w3.org/2000/svg">
<path id="&#60;Path&#62;" d="M18.8083 11.7998L11.7998 18.8083L0 7.0085L7.00849 0L11.8327 4.82417L7.75812 8.89872C7.54197 9.1149 7.42053 9.40809 7.42053 9.7138C7.42053 10.0195 7.54197 10.3127 7.75812 10.5289L7.7904 10.5612C8.00659 10.7773 8.29978 10.8988 8.60549 10.8988C8.9112 10.8988 9.20439 10.7773 9.42058 10.5612L11.5553 8.42586C11.6388 8.34237 11.7379 8.27615 11.847 8.23096C11.9561 8.18578 12.073 8.16253 12.191 8.16253C12.3091 8.16253 12.426 8.18578 12.5351 8.23096C12.6442 8.27615 12.7433 8.34237 12.8268 8.42586C12.9103 8.50935 12.9765 8.60846 13.0217 8.71755C13.0669 8.82663 13.0901 8.94354 13.0901 9.06161C13.0901 9.17968 13.0669 9.2966 13.0217 9.40568C12.9765 9.51476 12.9103 9.61388 12.8268 9.69736L9.73023 12.7939C9.50114 13.023 9.37243 13.3337 9.37243 13.6577C9.37243 13.9817 9.50114 14.2924 9.73023 14.5215C9.95933 14.7506 10.2701 14.8793 10.594 14.8793C10.918 14.8793 11.2288 14.7506 11.4578 14.5215L16.4936 9.48575L18.8083 11.7998Z" fill="var(--fill-0, #A9EF71)"/>
</svg>
