<svg preserveAspectRatio="none" width="100%" height="100%" overflow="visible" style="display: block;" viewBox="0 0 19.0785 19.7806" fill="none" xmlns="http://www.w3.org/2000/svg">
<g id="Vector">
<path d="M9.53924 0C14.8144 0 19.0785 4.43085 19.0785 9.89029C19.0785 15.3596 14.8144 19.7806 9.53924 19.7806C4.27358 19.7806 0 15.3596 0 9.89029C0 4.43085 4.27358 0 9.53924 0ZM9.20537 4.87591C8.81426 4.87591 8.48993 5.20229 8.48993 5.61768V10.6123C8.48993 10.8694 8.62348 11.1068 8.84288 11.2453L12.5823 13.5596C12.6967 13.6288 12.8207 13.6684 12.9543 13.6684C13.1928 13.6684 13.4313 13.5398 13.5648 13.3024C13.7651 12.9563 13.6602 12.5013 13.3168 12.2837L9.92081 10.187V5.61768C9.92081 5.20229 9.59648 4.87591 9.20537 4.87591Z" fill="var(--fill-0, white)"/>
<path d="M9.53924 0C14.8144 0 19.0785 4.43085 19.0785 9.89029C19.0785 15.3596 14.8144 19.7806 9.53924 19.7806C4.27358 19.7806 0 15.3596 0 9.89029C0 4.43085 4.27358 0 9.53924 0ZM9.20537 4.87591C8.81426 4.87591 8.48993 5.20229 8.48993 5.61768V10.6123C8.48993 10.8694 8.62348 11.1068 8.84288 11.2453L12.5823 13.5596C12.6967 13.6288 12.8207 13.6684 12.9543 13.6684C13.1928 13.6684 13.4313 13.5398 13.5648 13.3024C13.7651 12.9563 13.6602 12.5013 13.3168 12.2837L9.92081 10.187V5.61768C9.92081 5.20229 9.59648 4.87591 9.20537 4.87591Z" fill="var(--fill-1, #EFA79A)"/>
</g>
</svg>
