<svg preserveAspectRatio="none" width="100%" height="100%" overflow="visible" style="display: block;" viewBox="0 0 20 16" fill="none" xmlns="http://www.w3.org/2000/svg">
<g id="Share" clip-path="url(#clip0_0_578)">
<path id="Vector" d="M11.6551 11.8617V0.736593C11.6551 0.119891 12.3674 -0.222722 12.8455 0.163941L19.7292 5.7265C20.0927 6.02017 20.0927 6.57569 19.7292 6.86936L12.8455 12.4319C12.3674 12.8186 11.6551 12.476 11.6551 11.8593V11.8617Z" fill="var(--fill-0, white)"/>
<path id="Vector_2" d="M12.1503 9.18692C17.7778 9.18692 18.8828 3.51179 12.2015 3.51179C5.52018 3.51179 0.0585419 8.55064 -1.79515e-06 14.7666C-1.79515e-06 14.9918 0.00243753 15.2145 0.0146341 15.4372C0.0463453 16.0392 0.851322 16.2154 1.12453 15.677C3.08818 11.8422 7.29601 9.18447 12.1478 9.18447L12.1503 9.18692Z" fill="var(--fill-0, white)"/>
</g>
<defs>
<clipPath id="clip0_0_578">
<rect width="20" height="16" fill="white"/>
</clipPath>
</defs>
</svg>
