<svg width="179" height="252" viewBox="0 0 179 252" fill="none" xmlns="http://www.w3.org/2000/svg">
<path d="M109.183 247.039C133.8 235.758 153.14 203.946 159.721 168.95C166.276 166.443 171.002 158.785 171.002 149.773C171.002 141.801 167.241 134.932 161.877 131.686C161.522 119.271 160.079 106.91 157.565 94.7473C195.983 71.3208 153.178 9.30127 153.178 9.30127C144.291 29.2683 126.129 23.3021 126.129 23.3021C103.267 12.6103 94.1542 39.0701 94.1542 39.0701L87.0598 20.4693C80.2788 35.5104 74.8013 46.904 74.8013 46.904L72.6454 34.3698C61.0638 52.933 39.7807 71.0701 25.9052 86.9009C14.1857 100.275 12.1176 115.241 13.5339 127.951C13.396 129.292 13.2957 130.645 13.233 131.999C8.08146 135.358 4.5719 142.027 4.5719 149.81C4.5719 159.612 10.1998 167.759 17.6451 169.514C26.4191 203.595 46.9753 235.495 71.0035 246.976L109.183 247.039Z" fill="#49BEB7" stroke="black" stroke-width="9.14374" stroke-miterlimit="10"/>
<path d="M162.466 136.035C162.466 135.396 162.128 132.663 161.614 132.588C157.026 131.911 139.503 131.159 133.863 131.009C128.761 130.683 122.707 130.595 116.979 130.796C112.174 130.92 107.381 131.338 102.628 132.049C101.44 132.264 100.264 132.541 99.1054 132.877C97.9272 133.177 91.7102 135.383 90.1183 135.383C88.5265 135.383 82.3221 133.202 81.1438 132.877C79.9802 132.542 78.8005 132.266 77.6092 132.049C72.8596 131.339 68.0708 130.92 63.27 130.796C57.5418 130.595 51.4752 130.683 46.3738 131.009C40.7459 131.159 18.4725 130.758 13.8724 131.435C13.3711 131.51 13.2207 135.308 13.1831 135.947C13.0703 138.041 29.6907 137.627 30.0291 138.931C30.068 139.086 30.1381 139.231 30.2351 139.358C30.332 139.485 30.4539 139.592 30.5932 139.67C32.1518 140.471 33.3707 141.806 34.0275 143.43C34.2103 144.214 34.3359 145.01 34.4036 145.812C34.5885 150.468 35.1079 155.105 35.9578 159.687V159.938C36.9104 164.062 37.9131 166.857 42.9394 168.01C48.812 169.1 54.7658 169.696 60.738 169.79C65.0035 169.964 69.2753 169.914 73.5355 169.639C78.7623 169.226 80.3291 166.393 81.9585 162.42C83.2823 158.558 84.2761 154.592 84.9291 150.562C84.9291 150.562 85.4431 148.62 85.6687 147.93C86.3205 146.163 87.6491 143.13 90.1559 143.13C92.6628 143.13 93.9914 146.163 94.6432 147.93C94.9816 148.87 95.3953 150.562 95.3953 150.562C96.0464 154.594 97.0316 158.564 98.3408 162.432C99.9828 166.406 101.537 169.238 106.764 169.652C111.028 169.927 115.304 169.977 119.574 169.802C125.488 169.694 131.382 169.095 137.197 168.01C142.211 166.857 143.226 164.062 144.179 159.938V159.687C145.033 155.106 145.557 150.469 145.745 145.812C145.81 145.01 145.932 144.215 146.109 143.43C146.767 141.802 147.991 140.467 149.556 139.67C149.819 139.532 150.132 139.833 150.22 139.507C150.659 138.204 162.579 138.128 162.466 136.035ZM81.9711 143.556C81.4897 149.427 80.3287 155.224 78.5116 160.828C77.183 164.049 76.2806 165.842 72.4451 166.117C65.0624 166.706 50.8861 166.117 44.431 164.638C40.6707 163.773 40.4075 162.131 39.668 158.885C38.7433 153.665 38.2403 148.38 38.1638 143.079C38.0636 137.915 39.4173 136.298 42.6386 135.922C53.8321 134.823 65.1144 134.999 76.268 136.449C82.0463 137.364 82.0463 139.72 81.9711 143.543V143.556ZM140.581 158.885C139.829 162.106 139.541 163.773 135.806 164.638C129.363 166.117 115.174 166.706 107.792 166.117C104.031 165.817 103.054 164.049 101.725 160.828C99.9139 155.222 98.7531 149.427 98.2656 143.556C98.2029 139.733 98.2656 137.364 103.969 136.449C115.127 134.999 126.413 134.823 137.611 135.922C140.844 136.298 142.173 137.915 142.085 143.079C141.996 148.375 141.493 153.655 140.581 158.873V158.885Z" fill="#070707" stroke="black" stroke-width="3.76028" stroke-miterlimit="10"/>
<path opacity="0.14" d="M81.971 143.543C81.4896 149.415 80.3286 155.211 78.5115 160.816C77.1829 164.037 76.2805 165.829 72.445 166.105C65.0623 166.694 50.886 166.105 44.4309 164.626C40.6706 163.761 40.4074 162.119 39.6679 158.873C38.7432 153.653 38.2402 148.367 38.1637 143.067C38.0635 137.903 39.4172 136.286 42.6385 135.91C53.832 134.81 65.1143 134.987 76.2679 136.436C82.0462 137.364 82.0462 139.72 81.971 143.543Z" fill="white"/>
<path opacity="0.14" d="M140.581 158.873C139.829 162.094 139.541 163.761 135.806 164.626C129.363 166.105 115.174 166.694 107.792 166.105C104.031 165.804 103.054 164.037 101.725 160.816C99.9139 155.21 98.7531 149.414 98.2656 143.543C98.2029 139.72 98.2656 137.351 103.969 136.436C115.127 134.987 126.413 134.81 137.611 135.91C140.845 136.286 142.173 137.903 142.085 143.067C141.996 148.367 141.493 153.651 140.581 158.873V158.873Z" fill="white"/>
</svg>